<?xml version="1.0" encoding="UTF-8"?>
<svg id="Layer_2" data-name="Layer 2" xmlns="http://www.w3.org/2000/svg" viewBox="0 0 408.83 408.84">
  <defs>
    <style>
      .cls-1 {
        fill: #fff;
      }
    </style>
  </defs>
  <g id="Layer_1-2" data-name="Layer 1">
    <path d="M0,13.61C2.56,6.33,6.98,1.47,14.84.1l89.95.14c16.96,2.43,19.59,26.89,3.57,32.7-.77.28-4.6,1.43-4.96,1.43h-44.31l106.18,106.61c14.96,17.52-6.82,39.27-24.32,24.32L34.33,59.12v44.31c0,2.23-2.77,8.16-4.36,10.01-9.29,10.8-26.85,5.42-29.97-8.01V13.61Z"/>
    <path d="M0,303.44c3.12-13.44,20.68-18.82,29.97-8.01,1.59,1.85,4.36,7.77,4.36,10.01v44.31l106.61-106.18c17.5-14.95,39.28,6.8,24.32,24.32l-106.18,106.61h44.31c2.23,0,8.16,2.77,10.01,4.36,10.8,9.29,5.42,26.85-8.01,29.97H13.57c-7.14-2.47-11.09-6.39-13.57-13.57v-91.82Z"/>
    <path d="M303.41,408.84c-13.44-3.12-18.82-20.68-8.01-29.97,1.85-1.59,7.77-4.36,10.01-4.36h44.31l-106.18-106.61c-14.96-17.52,6.82-39.27,24.32-24.32l106.61,106.18v-44.31c0-.36,1.15-4.19,1.43-4.96,5.81-16.02,30.26-13.39,32.7,3.57l.14,89.95c-1.37,7.86-6.23,12.28-13.51,14.84h-91.82Z"/>
    <path class="cls-1" d="M13.57,408.84H0v-13.57c2.48,7.18,6.43,11.1,13.57,13.57Z"/>
    <path d="M408.83,102.66s-.02-58.96-.02-87.06c-1.26-8.93-7.31-14.78-16.34-15.6-32.27,0-55.8,0-86.29,0-19.4,0-22.26,26.93-5.73,32.93.77.28,4.6,1.43,4.96,1.43h44.31l-106.18,106.61c-14.95,17.5,6.8,39.28,24.32,24.32l106.61-106.18v44.31c0,25.09,34.36,24.69,34.36-.77Z"/>
  </g>
</svg>