<?xml version="1.0" encoding="UTF-8"?>
<svg id="Layer_2" data-name="Layer 2" xmlns="http://www.w3.org/2000/svg" viewBox="0 0 808.13 891.24">
  <defs>
    <style>
      .cls-1 {
        font-family: Pacifico, Pacifico;
        font-size: 619.49px;
      }

      .cls-1, .cls-2 {
        fill: #fff;
      }
    </style>
  </defs>
  <g id="Layer_1-2" data-name="Layer 1">
    <path class="cls-2" d="M404.06,76.54c44.25,0,87.14,8.65,127.47,25.71,38.99,16.49,74.03,40.12,104.13,70.22,30.1,30.1,53.73,65.14,70.22,104.13,17.06,40.33,25.71,83.22,25.71,127.46s-8.65,87.14-25.71,127.47c-16.49,38.99-40.12,74.03-70.22,104.13-30.1,30.1-65.14,53.73-104.13,70.22-40.33,17.06-83.22,25.71-127.47,25.71s-87.14-8.65-127.46-25.71c-38.99-16.49-74.03-40.12-104.13-70.22-30.1-30.1-53.73-65.14-70.22-104.13-17.06-40.33-25.71-83.22-25.71-127.47s8.65-87.14,25.71-127.46c16.49-38.99,40.12-74.03,70.22-104.13,30.1-30.1,65.14-53.73,104.13-70.22,40.33-17.06,83.22-25.71,127.46-25.71M404.06,0C180.91,0,0,180.91,0,404.06s180.91,404.06,404.06,404.06,404.06-180.91,404.06-404.06S627.22,0,404.06,0h0Z"/>
    <text class="cls-1" transform="translate(276.97 609.93)"><tspan x="0" y="0">i</tspan></text>
  </g>
</svg>