<?xml version="1.0" encoding="UTF-8"?>
<svg id="Layer_2" data-name="Layer 2" xmlns="http://www.w3.org/2000/svg" viewBox="0 0 408.83 408.84">
  <g id="Layer_1-2" data-name="Layer 1">
    <path d="M170.25,156.73c-2.56,7.28-6.98,12.13-14.84,13.51l-89.95-.14c-16.96-2.43-19.59-26.89-3.57-32.7.77-.28,4.6-1.43,4.96-1.43h44.31L4.99,29.36C-9.97,11.84,11.81-9.91,29.31,5.04l106.61,106.18v-44.31c0-2.23,2.77-8.16,4.36-10.01,9.29-10.8,26.85-5.42,29.97,8.01v91.82Z"/>
    <path d="M170.25,343.98c-3.12,13.44-20.68,18.82-29.97,8.01-1.59-1.85-4.36-7.77-4.36-10.01v-44.31l-106.61,106.18c-17.5,14.95-39.28-6.8-24.32-24.32l106.18-106.61h-44.31c-2.23,0-8.16-2.77-10.01-4.36-10.8-9.29-5.42-26.85,8.01-29.97h91.82c7.14,2.47,11.09,6.39,13.57,13.57v91.82Z"/>
    <path d="M238.56,343.94c3.12,13.44,20.68,18.82,29.97,8.01,1.59-1.85,4.36-7.77,4.36-10.01v-44.31l106.61,106.18c17.52,14.96,39.27-6.82,24.32-24.32l-106.18-106.61h44.31c.36,0,4.19-1.15,4.96-1.43,16.02-5.81,13.39-30.26-3.57-32.7l-89.95-.14c-7.86,1.37-12.28,6.23-14.84,13.51v91.82Z"/>
    <path d="M238.55,67.62s.02,58.96.02,87.06c1.26,8.93,7.31,14.78,16.34,15.6,32.27,0,55.8,0,86.29,0,19.4,0,22.26-26.93,5.73-32.93-.77-.28-4.6-1.43-4.96-1.43h-44.31l106.18-106.61c14.95-17.5-6.8-39.28-24.32-24.32l-106.61,106.18v-44.31c0-25.09-34.36-24.69-34.36.77Z"/>
  </g>
</svg>